<?xml version="1.0" encoding="utf-8"?>
<!-- Generator: Adobe Illustrator 16.0.3, SVG Export Plug-In . SVG Version: 6.00 Build 0)  -->
<!DOCTYPE svg PUBLIC "-//W3C//DTD SVG 1.1//EN" "http://www.w3.org/Graphics/SVG/1.1/DTD/svg11.dtd">
<svg version="1.1" id="Layer_1" xmlns="http://www.w3.org/2000/svg" xmlns:xlink="http://www.w3.org/1999/xlink" x="0px" y="0px"
	 width="203.5px" height="116.476px" viewBox="0 0 203.5 116.476" enable-background="new 0 0 203.5 116.476" xml:space="preserve">
<g>
	<rect x="-53.897" y="-29.066" fill="none" width="288" height="198"/>
	<g>
		<g>
			<g>
				<path fill="#FFFFFF" d="M55.06,93.908l-0.318,0.329c-5.202,5.323-11.238,8.137-17.457,8.137
					c-12.984,0-22.409-9.743-22.409-23.169c0-13.427,9.424-23.172,22.409-23.172c6.219,0,12.255,2.815,17.457,8.143l0.318,0.325
					l8.363-10.1l-0.219-0.264c-6.938-8.21-15.285-12.203-25.512-12.203c-10.281,0-19.68,3.443-26.468,9.694
					C3.88,58.392,0,67.926,0,79.205c0,11.278,3.88,20.812,11.224,27.577c6.789,6.251,16.188,9.694,26.468,9.694
					c10.227,0,18.573-3.992,25.512-12.204l0.219-0.265L55.06,93.908z"/>
				<polygon fill="#FFFFFF" points="71.86,43.097 71.86,115.096 86.601,115.096 86.601,110.689 86.601,43.097 				"/>
				<path fill="#FFFFFF" d="M144.394,99.441c-3.932,2.394-7.599,3.605-10.902,3.605c-4.775,0-6.904-2.506-6.904-8.123V56.729h15
					V43.171h-15V20.754l-14.471,7.749v14.667H99.644v13.558h12.473v40.632c0,11.076,6.572,18.644,16.355,18.832
					c6.652,0.126,10.651-1.83,13.08-3.313l0.143-0.087l3.561-13.88L144.394,99.441z"/>
				<polygon fill="#FFFFFF" points="156.603,43.097 156.603,115.096 171.354,115.096 171.354,109.267 171.354,43.097 				"/>
				<path fill="#FF0000" d="M180.631,31.451C168.332,13.009,145.615-0.009,121.356,0C97.474,0.009,74.763,12.632,62.059,31.451
					H79.01c11.569-11.918,26.565-18.403,42.346-18.411c15.494-0.008,30.736,6.493,42.324,18.411H180.631z"/>
			</g>
		</g>
	</g>
	<path fill="#FFFFFF" d="M202.255,27.386c0,3.69-2.811,6.501-6.5,6.501c-3.691,0-6.504-2.811-6.504-6.501s2.813-6.501,6.504-6.501
		C199.445,20.885,202.255,23.695,202.255,27.386z M203.5,27.386c0-4.398-3.348-7.745-7.745-7.745c-4.398,0-7.748,3.347-7.748,7.745
		s3.35,7.746,7.748,7.746C200.153,35.131,203.5,31.784,203.5,27.386z M199.295,25.563c0-1.76-1.267-2.554-2.768-2.554h-3.714v8.454
		h1.438v-3.261h1.631l1.652,3.261h1.695l-1.736-3.411C198.586,27.729,199.295,26.893,199.295,25.563z M197.835,25.605
		c0,0.836-0.579,1.201-1.352,1.201h-2.232v-2.403h2.232C197.256,24.404,197.835,24.812,197.835,25.605z"/>
</g>
</svg>
